# xmcd
#
# Track frame offsets:
# 262331
# 272835
# 286674
# 302420
# 315019
# 331811
# 343003
# 356756
# 373155
# 385796
#
# Disc length: 5339 seconds
#
#
# Revision: 0
# Processed by: cddbd v1.5.2PL0 Copyright (c) Steve Scherf et al.
# Submitted via: FreeRIP 2.944 
#
DISCID=a507320a
DTITLE=Clint Black - Killin' Time
DYEAR=1900
DGENRE=Country
TTITLE0=Straight From The Factory
TTITLE1=A Better Man
TTITLE2=Nobody's Home
TTITLE3=Walkin' Away
TTITLE4=You're Gonna Leave Me Again
TTITLE5=I'll Be Gone
TTITLE6=Nothing's News
TTITLE7=Winding Down
TTITLE8=Killin' Time
TTITLE9=Live And Learn
EXTD=
EXTT0=
EXTT1=
EXTT2=
EXTT3=
EXTT4=
EXTT5=
EXTT6=
EXTT7=
EXTT8=
EXTT9=
PLAYORDER=
